<?xml version="1.0" encoding="UTF-8" standalone="no"?>
<svg
   xmlns:dc="http://purl.org/dc/elements/1.1/"
   xmlns:cc="http://creativecommons.org/ns#"
   xmlns:rdf="http://www.w3.org/1999/02/22-rdf-syntax-ns#"
   xmlns:svg="http://www.w3.org/2000/svg"
   xmlns="http://www.w3.org/2000/svg"
   xmlns:sodipodi="http://sodipodi.sourceforge.net/DTD/sodipodi-0.dtd"
   xmlns:inkscape="http://www.inkscape.org/namespaces/inkscape"
   viewBox="0 0 714 173"
   version="1.1"
   id="svg15"
   sodipodi:docname="coronaSafeLogo.svg"
   inkscape:version="0.92.3 (2405546, 2018-03-11)">
  <metadata
     id="metadata19">
    <rdf:RDF>
      <cc:Work
         rdf:about="">
        <dc:format>image/svg+xml</dc:format>
        <dc:type
           rdf:resource="http://purl.org/dc/dcmitype/StillImage" />
      </cc:Work>
    </rdf:RDF>
  </metadata>
  <sodipodi:namedview
     pagecolor="#ffffff"
     bordercolor="#666666"
     borderopacity="1"
     objecttolerance="10"
     gridtolerance="10"
     guidetolerance="10"
     inkscape:pageopacity="0"
     inkscape:pageshadow="2"
     inkscape:window-width="1299"
     inkscape:window-height="713"
     id="namedview17"
     showgrid="false"
     inkscape:zoom="0.73"
     inkscape:cx="328.81766"
     inkscape:cy="144.0261"
     inkscape:window-x="67"
     inkscape:window-y="27"
     inkscape:window-maximized="1"
     inkscape:current-layer="svg15" />
  <defs
     id="defs13">
    <path
       id="B"
       d="M707.2 84.4c-2.1-6.9-5.6-13.3-10.3-18.8-4.7-5.4-10.5-9.8-17-12.8-7-3.2-14.6-4.9-22.2-5-4.4-.1-8.8.3-13.1 1.1l.8-7.4c.8-9.9-5.4-19-14.9-21.9-3.1-1-6.4-1.7-9.6-2.2-3.2-.4-6.4-.6-9.7-.7-6.4-.2-12.8.8-18.9 2.8-6.2 2.1-11.9 5.4-16.7 9.8-5 4.6-8.9 10.2-11.4 16.5l-1.2 3.3a23.29 23.29 0 0 0-5.2 2.7c-7.7-4-16.6-6.1-26.9-6.3-10.5-.1-21 1.5-31 4.7-.2.1-.4.1-.5.2-.2-.1-.4-.2-.6-.2-4.6-1.8-9.3-3.1-14.1-4.1s-9.7-1.5-14.7-1.5c-13.7-.2-25.2 3.1-34.3 10-.8.6-1.6 1.2-2.3 1.9l-.1-.1c-8.3-7.8-19.9-11.8-34.4-12.1-4.7-.1-9.4.2-14.1.8-4.2.5-8.3 1.3-12.3 2.5s-7.6 3.5-10.3 6.6c-6.1-5.6-15.5-10.7-29.8-11-5.2-.1-10.5.6-15.5 2.2l-2 .7c-1.7-.7-3.4-1.2-5.1-1.4-1.1-.2-2.2-.3-3.2-.4-2.4-.2-4.7-.2-7.1-.1-1.1.1-2.2.1-3.4.3-6 .6-11.5 3.9-15 8.8-2.9-2.4-6-4.4-9.4-6.1-14.7-6.9-31.6-7.2-46.5-.8-.9.4-1.8.8-2.6 1.3-2.9-2.4-6.4-4-10.1-4.6-1.6-.3-3.1-.4-4.7-.4h-1.5c-4.6-.1-9.2.4-13.7 1.6-1.8-.8-3.7-1.3-5.6-1.6-1.1-.2-2.2-.3-3.2-.4-2.4-.2-4.7-.3-7.1-.1-1.1.1-2.2.1-3.4.3-6 .6-11.5 3.8-15 8.8-2.9-2.4-6-4.4-9.4-6.1-14.7-6.9-31.6-7.2-46.6-.8a62.82 62.82 0 0 0-5.1 2.7c-2-1.8-4.3-3.2-6.8-4.1-3.7-1.3-7.5-2.3-11.3-2.9-4.5-.8-9-1.2-13.6-1.3-8.2-.2-16.3 1.2-23.8 4.3-7.1 3-13.5 7.5-18.7 13.2-4.9 5.5-8.6 12-11 19-2.4 6.9-3.7 14.2-3.8 21.5-.3 17.8 4.5 32.3 14.3 42.9 10.1 11 24.2 16.7 42 17 4.7.1 9.4-.2 14-1 3.9-.6 7.7-1.6 11.4-2.8 2.2-.7 4.2-1.8 6-3.2 1.5.9 3 1.8 4.6 2.6 14.7 6.9 31.6 7.2 46.6.8 3.4-1.6 6.6-3.5 9.6-5.8 3.2 4.8 8.2 8.1 13.9 9.2 1.6.3 3.3.5 4.9.6l3.2.1h3.4c1.6 0 3.2-.2 4.8-.4 9.5-1.4 16.9-9 18-18.5.4.6.9 1.2 1.3 1.9 4.6 6 10.6 10.9 17.4 14.3 14.7 6.9 31.6 7.2 46.6.8 3.4-1.6 6.6-3.5 9.5-5.7a21.37 21.37 0 0 0 13.8 9.2c1.6.3 3.3.5 4.9.6 1.1.1 2.1.1 3.2.1h3.4c1.6 0 3.2-.2 4.8-.4 7.1-1 13.1-5.5 16.1-12 2.8 6.6 8.7 11.3 15.7 12.6 1.6.3 3.3.5 4.9.6a43.98 43.98 0 0 0 3.2.1h3.4c1.6 0 3.2-.2 4.8-.4 4.1-.6 7.9-2.4 10.9-5.2 8.1 4.9 18.1 7.6 29.9 7.8 5.5.1 11-.2 16.4-.9a195.27 195.27 0 0 0 13.3-2c1.4-.3 2.8-.7 4.1-1.2l5.4 1.9c2.3.7 4.6 1.2 6.9 1.7 2.6.5 5.2.9 7.8 1.1 2.4.2 5 .4 7.8.4 6.8.2 13.5-.7 20-2.6 5.4-1.6 10.5-4 15.1-7.2.5.4 1 .8 1.6 1.2 5.4 3.8 11.4 6.4 17.8 7.8 5.8 1.3 11.7 1.9 17.6 2 6.8.2 13.5-.3 20.2-1.5 4.8-.8 9.6-1.9 14.3-3.3.3-.1.7-.2 1-.3 2.6 2 5.7 3.3 8.9 3.9 8.9 1.7 18 1.8 26.9.5 6.5-1 12.2-4.9 15.4-10.6 4.4 3.7 9.4 6.7 14.7 8.9 8 3.1 16.5 4.7 25.1 4.7 11.1.3 22.1-1.4 32.6-5.1 8.5-3.1 14.1-11.2 14-20.2-.1-4.4-.6-8.7-1.7-13 2.7-2.9 4.5-6.5 5.3-10.4.3-1.7.6-3.8.9-6.2.2-2.3.4-4.7.4-7-.4-7.2-1.3-14.1-3.3-20.8h0z" />
  </defs>
  <text
     xml:space="preserve"
     style="font-style:normal;font-variant:normal;font-weight:normal;font-stretch:normal;font-size:40px;line-height:1.25;font-family:'Lohit Tamil Classical';-inkscape-font-specification:'Lohit Tamil Classical, Normal';font-variant-ligatures:normal;font-variant-caps:normal;font-variant-numeric:normal;font-feature-settings:normal;text-align:center;letter-spacing:0px;word-spacing:0px;writing-mode:lr-tb;text-anchor:middle;fill:#000000;fill-opacity:1;stroke:none"
     x="343.30853"
     y="47.496075"
     id="text864"><tspan
       sodipodi:role="line"
       id="tspan862"
       x="349.67572"
       y="47.496075"
       style="font-style:normal;font-variant:normal;font-weight:normal;font-stretch:normal;font-size:40px;font-family:'Century Schoolbook L';-inkscape-font-specification:'Century Schoolbook L';font-variant-ligatures:normal;font-variant-caps:normal;font-variant-numeric:normal;font-feature-settings:normal;text-align:center;writing-mode:lr-tb;text-anchor:middle;fill:#0e232e">Collaborative </tspan><tspan
       sodipodi:role="line"
       x="349.67572"
       y="100.54295"
       style="font-style:normal;font-variant:normal;font-weight:normal;font-stretch:normal;font-size:40px;font-family:'Century Schoolbook L';-inkscape-font-specification:'Century Schoolbook L';font-variant-ligatures:normal;font-variant-caps:normal;font-variant-numeric:normal;font-feature-settings:normal;text-align:center;writing-mode:lr-tb;text-anchor:middle;fill:#0e232e"
       id="tspan866">Radio Frequency  </tspan><tspan
       sodipodi:role="line"
       x="343.30853"
       y="153.58983"
       style="font-style:normal;font-variant:normal;font-weight:normal;font-stretch:normal;font-size:40px;font-family:'Century Schoolbook L';-inkscape-font-specification:'Century Schoolbook L';font-variant-ligatures:normal;font-variant-caps:normal;font-variant-numeric:normal;font-feature-settings:normal;text-align:center;writing-mode:lr-tb;text-anchor:middle;fill:#0e232e"
       id="tspan868">Observatory</tspan></text>
  <path
     style="opacity:1;fill:#19aeff;fill-opacity:1;fill-rule:nonzero;stroke:#ffffff;stroke-width:1.51181102;stroke-linejoin:bevel;stroke-miterlimit:4;stroke-dasharray:none;stroke-dashoffset:0;stroke-opacity:1;paint-order:markers fill stroke"
     id="path886"
     d="m 17.648697,93.586078 c -0.481894,-2.20661 -0.575292,-4.44043 -0.663655,-6.66835 -0.0394,-3.25028 -0.198036,-6.50465 0.02322,-9.75237 0.136581,-2.89682 0.766552,-5.75726 1.312983,-8.62431 0.602339,-2.287985 1.124322,-4.579792 1.382795,-6.900606 0.295645,-1.799541 0.750707,-3.581308 0.995505,-5.385357 0.129216,-1.483863 0.477351,-2.967015 1.129457,-4.381611 2.658073,-4.683355 10.624955,-7.771537 17.717977,-7.625552 2.565695,0.388043 5.107174,0.91155 7.565569,1.560898 2.255344,0.587225 4.528631,1.21959 6.60174,2.086184 1.732846,0.662271 3.214023,1.640319 4.551032,2.654863 1.858956,1.238793 3.089605,2.775461 4.299022,4.341067 1.295862,1.667438 2.29086,3.430881 3.361727,5.171692 0.905291,1.857045 2.0843,3.638348 3.04954,5.478344 0.697044,1.53036 1.344906,3.070708 2.058566,4.597188 0.64239,1.48138 1.328959,2.95357 2.045625,4.41808 0.624385,1.41248 1.273607,2.81693 2.088805,4.17983 0.575901,1.32973 1.605901,2.50035 2.652882,3.66178 1.028577,1.02607 2.564421,1.61121 4.094827,2.19404 1.766939,0.3983 3.57667,0.75651 5.404554,1.00544 3.299877,0.38483 6.558961,-0.23517 9.736498,-0.80311 1.513081,-0.24857 3.072824,-0.55235 4.487784,-1.01998 0.35172,-0.11624 1.33925,-0.55564 1.00166,-0.42011 -12.331765,4.95083 -16.012679,6.87755 -11.432541,4.51916 1.681982,-1.09666 2.893452,-2.47146 3.999058,-3.87145 1.366167,-1.75365 1.763926,-3.71805 2.002631,-5.68142 0.239257,-2.43346 0.234551,-4.87476 0.249673,-7.31283 0.02664,-3.42398 -0.39615,-6.842442 -0.924799,-10.243158 -0.607036,-3.474243 -0.885098,-6.970983 -1.075678,-10.467255 -0.117819,-2.352815 0.435167,-4.655274 1.059556,-6.952723 0.322397,-1.765983 1.07735,-3.432129 2.156515,-5.032541 0.946561,-1.338466 1.951895,-2.65713 3.227895,-3.854338 1.1168,-1.115873 2.17499,-2.225361 3.67542,-3.102233 4.95131,-2.389076 9.98975,-4.193661 15.48719,-6.323556 0.26993,-0.104581 0.59038,-0.136703 0.89715,-0.155058 0.34411,-0.02059 1.79253,0.100975 2.09658,0.123879 2.44548,0.100475 4.6874,0.837343 7.00248,1.328323 2.03687,0.557596 4.10542,0.993345 6.02821,1.737619 2.00644,0.633436 4.04939,1.207679 6.11865,1.735102 2.21175,0.545141 4.39076,1.071683 6.7146,1.320637 2.39223,0.304521 4.49583,0.146042 6.67418,-0.600858 6.88098,-3.058128 -16.22185,7.195997 -9.97627,3.837491 0,0 14.20642,-4.0105 14.20642,-4.0105 v 0 c -4.94286,2.766874 -10.47503,5.032638 -16.24431,6.829613 -2.38685,0.502104 -4.7836,0.510487 -7.22431,0.148811 -2.33709,-0.354779 -4.5653,-0.938584 -6.81854,-1.494768 -2.11984,-0.563205 -4.27587,-1.07628 -6.29587,-1.807407 -1.89383,-0.632397 -3.85827,-1.127236 -5.8366,-1.611303 -2.20804,-0.518346 -4.41454,-1.107063 -6.78295,-1.065092 -0.93698,0.0409 -0.98632,-0.01057 -1.81262,0.20695 -0.27176,0.07155 -1.04269,0.357215 -0.79276,0.253276 21.93315,-9.121433 15.23176,-6.486192 10.88438,-4.397175 -1.77044,0.609143 -2.83287,1.573131 -3.8671,2.728866 -1.211,1.20642 -2.56342,2.33268 -3.43009,3.702756 -1.06722,1.542231 -2.12375,3.066149 -2.38345,4.806685 -0.65967,2.25442 -1.37159,4.501853 -1.43682,6.817273 0.0897,3.489661 0.28852,6.978048 0.8636,10.447474 0.54147,3.409834 1.16728,6.829767 1.22499,10.263636 0.0222,2.445804 0.0898,4.893664 -0.0451,7.338294 -0.22394,2.0566 -0.47491,4.15334 -1.70314,6.05463 -1.01538,1.49146 -2.18984,2.91728 -3.71444,4.18227 -4.92925,4.09473 -12.91773,6.25766 -20.242034,7.50112 -3.389468,0.55003 -6.858638,1.01962 -10.327822,0.52039 -1.952112,-0.30692 -3.965546,-0.59361 -5.746019,-1.25706 -1.684719,-0.72502 -3.376349,-1.44939 -4.463653,-2.65621 -1.067906,-1.21717 -2.176702,-2.44143 -2.789321,-3.818 -0.797836,-1.39299 -1.456397,-2.82108 -2.089743,-4.25516 -0.711794,-1.47133 -1.430556,-2.94151 -2.055762,-4.4319 -0.700956,-1.5228 -1.37579,-3.05036 -2.000158,-4.58961 -0.881518,-1.83636 -2.041205,-3.5986 -2.962669,-5.425472 -1.061357,-1.707821 -2.062267,-3.433213 -3.298712,-5.084474 -1.163349,-1.483625 -2.375354,-2.914185 -4.199582,-4.052255 -1.28826,-0.915081 -2.663858,-1.793552 -4.286816,-2.403438 -2.042182,-0.784179 -4.206668,-1.405726 -6.39629,-1.952699 -2.352546,-0.553776 -4.754818,-1.184846 -7.263484,-1.184163 -0.343189,0.03799 -0.695653,0.04634 -1.029567,0.113991 -0.312606,0.06334 -1.172081,0.39501 -0.894117,0.275766 27.169982,-11.655566 12.642567,-6.645957 10.493601,-3.785107 -0.714898,1.338025 -1.275273,2.717899 -1.351836,4.161032 -0.226063,1.822057 -0.666219,3.619219 -1.133826,5.417339 -0.254287,2.343931 -0.673562,4.670147 -1.38641,6.969156 -0.546617,2.869718 -1.459868,5.706434 -1.561308,8.613784 -0.247697,3.20814 -0.09448,6.42284 0.02224,9.63316 0.128784,2.10964 0.215934,4.25097 0.94186,6.30918 0,0 -13.648518,5.2135 -13.648518,5.2135 z"
     inkscape:connector-curvature="0" />
  <path
     style="opacity:1;fill:#ff4141;fill-opacity:1;fill-rule:nonzero;stroke:#ffffff;stroke-width:1.5118109;stroke-linejoin:bevel;stroke-miterlimit:4;stroke-dasharray:none;stroke-dashoffset:0;stroke-opacity:1;paint-order:markers fill stroke"
     id="path888"
     d="m 546.64353,68.964346 c -0.81525,-1.989503 -1.55338,-3.996458 -2.19375,-6.032528 -0.77686,-2.595762 -1.52917,-5.203603 -2.00471,-7.853326 -0.38566,-2.558322 -0.41691,-5.141628 -0.49324,-7.716456 -0.0754,-1.867702 -0.11845,-3.728069 0.14146,-5.585727 0.1937,-1.537142 0.48221,-3.053291 0.86279,-4.563898 0.461,-1.673138 1.0623,-3.311991 1.91704,-4.86938 0.8569,-1.422677 1.75551,-2.827612 2.65941,-4.229081 0.7276,-1.13158 1.71022,-2.119958 2.76685,-3.037056 3.92083,-3.391665 8.92763,-6.305412 14.40796,-7.380582 2.84773,-0.438457 5.6632,-0.03559 8.42633,0.575574 2.46423,0.619828 4.79688,1.52254 7.14812,2.388165 1.95806,0.84998 3.92471,1.656894 5.74425,2.712595 1.73953,1.042622 3.45087,2.066217 4.93616,3.370115 1.41473,1.245399 2.66303,2.619406 3.81951,4.042798 0.97063,1.245181 1.90766,2.508778 2.93401,3.722669 0.96891,1.258534 1.91999,2.524573 3.07435,3.666009 1.21917,1.175108 2.5592,2.251578 4.0035,3.222158 1.2994,1.005344 2.79297,1.769957 4.27757,2.551926 1.3536,0.689484 2.74815,1.298299 4.15323,1.910684 1.29743,0.504778 2.24759,0.549316 3.60346,0.273364 1.20783,-0.297565 2.44146,-0.736559 3.51094,-1.326668 0.23823,-0.103296 0.47086,-0.216538 0.71469,-0.309888 1.9471,-0.745465 -0.34266,0.248926 1.41126,-0.60811 0.21449,-0.104808 0.87481,-0.392684 0.66084,-0.287107 -11.58569,5.716662 -12.61137,6.252452 -8.88406,4.328615 1.51348,-0.824444 2.86315,-1.812629 4.14533,-2.877802 1.39382,-1.175879 2.43131,-2.579242 3.28372,-4.072274 0.98463,-1.766104 1.33864,-3.678721 1.52765,-5.607108 0.15906,-1.982278 0.14173,-3.970595 0.11801,-5.956154 -0.0243,-1.531562 -0.0406,-3.063186 -0.049,-4.594868 0.0859,-1.380105 -0.0593,-2.72817 -0.32716,-4.085968 -0.16958,-0.932866 -0.0914,-0.465325 -0.23448,-1.402628 0,0 10.577,-4.729261 10.577,-4.729261 v 0 c 0.12255,0.908092 0.0533,0.453907 0.20799,1.362531 0.28063,1.409811 0.55227,2.79813 0.41538,4.236534 -0.002,1.541471 -0.006,3.082946 -0.0183,4.624385 -0.0164,2.012941 -0.01,4.026658 -0.10521,6.038326 -0.16352,2.016424 -0.40012,4.036994 -1.34221,5.917829 -0.77235,1.596648 -1.69759,3.087729 -3.05865,4.389232 -1.25923,1.102619 -2.51287,2.188704 -4.01819,3.047442 -4.43238,2.797537 -9.45967,4.815002 -14.33454,6.982164 -1.21563,0.484884 -2.46665,0.94751 -3.81535,1.059339 -1.40848,0.0688 -2.77508,-0.237547 -4.01501,-0.810062 -1.3947,-0.645932 -2.79076,-1.279463 -4.13785,-1.997296 -1.53976,-0.795817 -3.02729,-1.655118 -4.38697,-2.665971 -1.43315,-1.065299 -2.83315,-2.167028 -4.10424,-3.3746 -1.15663,-1.170102 -2.11387,-2.467833 -3.12446,-3.730333 -1.04768,-1.213049 -1.93773,-2.511304 -2.91686,-3.762971 -1.10775,-1.381286 -2.33017,-2.701443 -3.71287,-3.891518 -1.44143,-1.23274 -3.10538,-2.208582 -4.77271,-3.207852 -1.79998,-0.986145 -3.72912,-1.766056 -5.64808,-2.568787 -2.24819,-0.890704 -4.52068,-1.75442 -6.92743,-2.291678 -2.71005,-0.515828 -5.46269,-0.80575 -8.16375,-0.05848 -4.27075,1.50656 -0.86833,0.346017 8.52995,-4.359855 1.46613,-0.734113 -1.52766,0.736758 -1.98093,1.142306 -0.17792,0.159182 -0.32565,0.340997 -0.48847,0.511495 -1.08644,0.83699 -2.14622,1.74736 -2.91117,2.814337 -1.07365,1.300627 -1.79604,2.80038 -2.74317,4.169486 -0.95388,1.440482 -1.55629,3.002617 -2.00881,4.607962 -0.36639,1.502219 -0.78421,2.983243 -0.94695,4.516894 -0.33006,1.825312 -0.32539,3.651345 -0.32127,5.497511 -0.009,2.540223 0.0316,5.086424 0.38585,7.611982 0.43229,2.616604 1.12664,5.19386 1.89554,7.752255 0.69602,1.93703 1.38211,3.882495 2.41735,5.71278 0,0 -10.48756,5.085813 -10.48756,5.085813 z"
     inkscape:connector-curvature="0" />
  <path
     style="opacity:1;fill:#ff9900;fill-opacity:1;fill-rule:nonzero;stroke:#ffffff;stroke-width:1.51181102;stroke-linejoin:bevel;stroke-miterlimit:4;stroke-dasharray:none;stroke-dashoffset:0;stroke-opacity:1;paint-order:markers fill stroke"
     id="path890"
     d="m 51.444744,164.9217 c -0.4604,-1.95892 -0.70758,-3.94886 -0.89816,-5.94818 0.0516,-2.16201 0.45451,-4.31572 0.82681,-6.445 0.38268,-1.90097 1.16555,-3.65824 1.89415,-5.44102 0.8611,-2.35018 2.25793,-4.41118 3.65273,-6.46708 4.51401,-6.22309 11.99134,-11.00177 19.61073,-12.1143 2.49319,-0.21313 5.01224,-0.29326 7.49011,0.0696 3.17432,0.42975 6.35965,0.97041 9.43176,1.89162 3.09003,0.96199 6.19151,2.06698 9.006656,3.67841 2.40372,1.36648 4.75674,2.80389 6.94147,4.50295 1.90331,1.34645 3.81706,2.72946 5.47829,4.37206 1.48755,1.33887 3.12933,2.44945 4.98691,3.19899 2.06075,1.15013 4.33697,1.59404 6.65452,1.83448 2.10774,0.17993 4.26324,0.38253 6.11132,-0.80032 -32.721386,16.161 -15.60524,10.3748 -12.23776,6.54514 0.89988,-1.02339 1.53005,-2.28023 2.1831,-3.46334 1.69668,-2.70428 3.01553,-5.59973 4.32152,-8.50413 1.51133,-3.46728 2.75704,-7.03804 4.02456,-10.59867 1.17456,-3.24081 2.12293,-6.55246 3.16128,-9.83722 0.50478,-1.73789 0.27505,-0.87853 0.69286,-2.57711 0,0 15.36438,-7.38978 15.36438,-7.38978 v 0 c -0.40071,1.8076 -0.17355,0.89764 -0.68544,2.72888 -1.0873,3.31267 -2.12406,6.63848 -3.25569,9.93766 -1.27378,3.58374 -2.5045,7.18359 -3.95789,10.70052 -1.24653,2.91993 -2.3761,5.91623 -4.13354,8.58089 -5.17571,9.56572 -3.47612,5.78608 -18.9885,14.50139 -2.17984,0.45015 -4.36749,0.36254 -6.56724,0.0393 -2.42554,-0.40171 -4.75159,-1.10146 -6.94459,-2.23583 -1.9505,-0.96573 -3.79015,-2.14561 -5.35764,-3.66926 -1.630476,-1.55636 -3.404396,-2.96302 -5.242346,-4.2656 -2.16754,-1.58011 -4.47324,-2.95331 -6.77283,-4.33109 -2.77245,-1.48908 -5.78676,-2.46208 -8.80354,-3.33288 -3.04004,-0.77811 -6.11854,-1.40027 -9.25222,-1.64676 -2.4274,-0.0925 -4.90007,-0.088 -7.2761,0.47672 -6.00683,2.12726 -0.42386,0.2146 12.89247,-7.68072 0.28147,-0.16689 -0.62348,0.20702 -0.91494,0.35578 -1.00183,0.51131 -1.69812,1.33954 -2.27968,2.28221 -1.52264,1.8043 -2.89052,3.85864 -3.7378,6.0707 -0.80195,1.6775 -1.50023,3.40053 -2.01947,5.18107 -0.65794,1.90074 -0.58218,3.99493 -1.08198,5.94808 0.11572,1.89678 0.30564,3.80926 0.89095,5.627 0,0 -15.20922,8.22484 -15.20922,8.22484 z"
     inkscape:connector-curvature="0" />
  <path
     style="opacity:1;fill:#009100;fill-opacity:1;fill-rule:nonzero;stroke:#ffffff;stroke-width:1.51181102;stroke-linejoin:bevel;stroke-miterlimit:4;stroke-dasharray:none;stroke-dashoffset:0;stroke-opacity:1;paint-order:markers fill stroke"
     id="path894"
     d="m 509.05938,157.78205 c -0.84416,-2.99714 -1.69728,-5.99941 -2.61293,-8.97506 -0.85501,-2.82143 -1.5683,-5.61969 -2.00748,-8.55045 -0.45432,-2.54277 -0.51107,-5.12563 -0.38667,-7.70995 0.10206,-2.24107 0.60356,-4.4437 1.96503,-6.21764 4.87763,-5.21984 11.81371,-7.9657 18.35116,-7.0742 1.4049,0.11986 2.76943,0.77564 3.86096,1.69203 1.19824,0.87915 2.48103,1.58686 3.66828,2.48652 1.6749,1.2835 3.12093,2.77317 4.39564,4.49089 1.48635,1.76467 3.16134,3.31735 4.75393,4.96919 1.58336,1.46258 3.1739,2.96139 4.48839,4.70329 1.27278,1.44185 2.50889,2.91275 3.86473,4.26751 1.34717,1.3552 2.88449,2.58905 4.53211,3.52074 1.5342,0.72816 3.20477,1.00863 4.86071,1.26612 5.32416,-1.05183 12.22622,-4.94432 -12.64147,5.66423 -1.03866,0.44308 1.10843,-0.51273 1.50927,-0.82422 1.07616,-0.98853 1.91733,-2.22331 2.7028,-3.47126 0.86377,-1.30233 1.17979,-2.84763 1.48177,-4.36917 0.3509,-1.98357 0.60278,-3.9834 0.86597,-5.98023 0.3744,-2.53245 0.68493,-5.07389 1.00889,-7.61317 0.19209,-2.39152 0.66214,-4.70184 1.3334,-6.9954 0.4765,-2.0801 1.1868,-4.05939 2.03821,-6.00115 0.72116,-1.77509 1.86817,-3.23839 3.04769,-4.68559 3.86713,-5.69978 11.22909,-8.7249 17.76429,-8.72889 1.40662,0.27027 2.24579,1.39109 3.39752,2.10321 1.33939,0.4155 2.2988,1.30898 3.40845,2.15074 1.23151,1.19967 2.50894,2.42639 3.96935,3.31247 1.47734,1.21952 2.92793,2.48191 4.24113,3.89799 1.42408,1.29009 2.55993,2.86951 3.7865,4.35483 1.56956,1.79022 2.8618,3.81155 4.2704,5.73492 1.61468,2.07414 3.06083,4.29902 4.79678,6.26205 1.27261,1.89735 3.12664,3.11825 4.86327,4.47362 1.6397,0.64393 2.99541,2.53274 4.76398,2.73579 0.44394,-0.16108 1.05346,0.035 1.4854,-0.14046 0.15915,-0.0647 0.55687,-0.40818 0.39886,-0.34044 -13.31667,5.70825 -18.46782,8.93927 -13.66618,5.95126 0.96168,-0.99629 1.25404,-2.55734 1.79343,-3.84447 0.85992,-1.96149 1.82235,-3.87224 2.70919,-5.82046 0.89257,-2.13794 1.73262,-4.29321 2.55086,-6.46246 0.95707,-2.03581 1.50227,-4.21901 2.1157,-6.37914 0.74236,-1.77321 1.19018,-3.65919 1.92687,-5.43135 0.76342,-1.85283 1.39284,-3.76005 2.0955,-5.63963 0.83911,-2.18575 1.89807,-4.27358 3.17968,-6.20862 3.6353,-6.021961 11.36409,-11.05068 18.20835,-9.35268 1.47693,0.876355 2.96401,1.710721 4.46412,2.537461 1.81547,1.135109 3.49581,2.452078 5.01768,3.994839 1.6715,2.02299 3.74278,3.59939 5.50604,5.52175 1.53109,1.3569 2.62417,3.1358 4.10576,4.54436 1.29218,1.46566 2.7059,2.81312 4.14965,4.10879 1.47738,1.13445 3.29491,1.46253 5.06177,1.78682 1.61277,0.17588 2.87938,0.7999 4.3813,-0.013 -27.33196,11.15679 -15.26919,8.55672 -11.43792,4.04581 1.28008,-1.51904 2.48748,-3.08053 3.5718,-4.76184 1.30754,-2.15811 2.71038,-4.25469 3.94631,-6.45931 1.08595,-1.66589 1.88651,-3.49611 2.83337,-5.24345 0.97125,-1.80884 1.8583,-3.6629 2.78228,-5.498002 0,0 14.96841,-5.109379 14.96841,-5.109379 v 0 c -0.88531,1.858081 -1.80469,3.6927 -2.69621,5.543511 -0.9591,1.76931 -1.73417,3.6398 -2.93608,5.25776 -1.14648,2.30503 -2.64705,4.3723 -3.90814,6.60679 -0.62859,0.96625 -1.1638,1.99008 -1.82407,2.93255 -1.76431,2.51838 0.68304,-0.98844 -1.09331,1.24857 -0.18169,0.2288 -0.30877,0.50005 -0.46317,0.75008 -0.50005,0.58791 -0.90782,1.27133 -1.41344,1.84734 -3.97887,4.53281 -16.60177,-0.1873 -16.02815,7.46833 -1.54315,0.0276 -3.05347,-0.48623 -4.57084,-0.70165 -1.97585,-0.4698 -3.91259,-1.08593 -5.44802,-2.54239 -1.40672,-1.36434 -2.86415,-2.67443 -4.14845,-4.1723 -1.42053,-1.49133 -2.62529,-3.18457 -4.10123,-4.61941 -1.74859,-1.89474 -3.69503,-3.56482 -5.4719,-5.42927 -1.50971,-1.37224 -3.10759,-2.63819 -4.89214,-3.5942 -1.31584,-0.72639 -2.71776,-1.6808 -4.20991,-1.82933 -5.45252,1.46639 -0.20207,0.088 13.23892,-6.069359 0.24458,-0.112036 -0.5216,0.127924 -0.76444,0.244228 -0.86248,0.413088 -1.35875,1.204511 -1.77625,2.064617 -1.25815,1.844994 -2.48206,3.680984 -3.30898,5.802364 -0.65592,1.92146 -1.40229,3.79374 -2.00499,5.73332 -0.79653,1.73678 -1.28437,3.54206 -1.99622,5.32274 -0.89965,2.07345 -1.05864,4.4516 -2.13647,6.47391 -0.93325,2.11735 -1.60195,4.3699 -2.53318,6.49034 -0.79139,1.95284 -1.73662,3.835 -2.64509,5.72799 -0.52745,1.49547 -1.20114,2.87724 -1.52427,4.44629 -3.387,5.45678 -11.63022,8.94613 -17.60606,6.96034 -1.62732,-1.02726 -3.20034,-2.15438 -4.80981,-3.21009 -1.84138,-1.38208 -3.60886,-2.84731 -4.92947,-4.81646 -1.70204,-2.06237 -3.28362,-4.23444 -4.89878,-6.3733 -1.34432,-1.95242 -2.73293,-3.85456 -4.30891,-5.60892 -1.16065,-1.48299 -2.37594,-2.91628 -3.70524,-4.23453 -1.29864,-1.29735 -2.69418,-2.47794 -4.15265,-3.5704 -1.39593,-1.0402 -2.69024,-2.22376 -3.99918,-3.38035 -1.09753,-0.81412 -2.31505,-1.31027 -3.44574,-2.06544 -0.85798,-0.65081 -1.71975,-1.40512 -2.863,-1.0521 -4.82454,1.58336 -15.06891,6.92806 12.58669,-5.85693 0.18029,-0.0833 -0.57168,0.0338 -1.05431,0.67104 -0.15865,0.20948 -0.25736,0.46214 -0.38604,0.69321 -1.15443,1.38088 -2.5006,2.61198 -3.22808,4.31878 -0.97579,1.79574 -1.6997,3.73596 -2.16015,5.74002 -0.6611,2.22351 -1.3175,4.40172 -1.44081,6.74549 -0.3389,2.5294 -0.68918,5.05788 -0.96755,7.5948 -0.25301,2.00998 -0.49373,4.02164 -0.76944,6.02865 -0.26087,1.694 -0.58074,3.41147 -1.27552,4.97995 -0.77849,1.32664 -1.59667,2.64758 -2.54629,3.8386 -4.10148,5.17183 -11.74893,8.68667 -18.04259,7.77107 -1.78138,-0.34877 -3.54061,-0.83745 -5.11119,-1.81274 -1.66176,-1.14069 -3.27254,-2.40248 -4.67402,-3.88493 -1.34147,-1.45083 -2.70287,-2.88432 -3.96327,-4.41542 -1.30507,-1.65136 -2.77469,-3.15115 -4.29624,-4.57756 -1.6774,-1.65957 -3.39331,-3.28074 -4.91169,-5.10936 -1.24184,-1.54075 -2.56645,-2.96826 -4.21775,-4.03177 -1.26149,-0.79573 -2.54728,-1.54782 -3.74246,-2.45271 -1.11979,-0.58092 -2.2258,-0.96015 -3.49799,-0.94151 -0.63524,-0.007 -1.27057,-0.0387 -1.88893,0.1696 -0.18778,0.0632 -0.72238,0.33605 -0.54092,0.2542 14.13794,-6.37797 18.72564,-7.5772 13.19033,-6.08321 -1.85443,1.30634 -2.24459,2.74519 -2.43246,5.04004 -0.17798,2.46928 -0.21677,4.94723 0.20444,7.38663 0.45677,2.83781 0.99848,5.62055 1.84487,8.36106 0.89028,2.96874 1.63656,5.99964 2.90433,8.81888 0,0 -14.69711,6.42655 -14.69711,6.42655 z"
     inkscape:connector-curvature="0" />
</svg>
